<svg width="125" height="102" viewBox="0 0 125 102" fill="none" xmlns="http://www.w3.org/2000/svg">
<path opacity="0.24" d="M11.1908 0.672363C5.07648 0.672363 0.124146 5.6247 0.124146 11.739V56.0057C0.124146 62.12 5.07648 67.0724 11.1908 67.0724H33.5511C33.6891 76.9562 32.7222 98.1344 23.1545 113.846H23.1653C22.4592 114.935 22.158 116.237 22.3144 117.525C22.4708 118.814 23.0748 120.006 24.0209 120.894C24.967 121.782 26.195 122.31 27.4905 122.385C28.786 122.459 30.0666 122.077 31.1087 121.303C31.1087 121.303 55.4575 102.732 55.4575 67.0724V11.739C55.4575 5.6247 50.5051 0.672363 44.3908 0.672363H11.1908ZM88.6575 0.672363C82.5432 0.672363 77.5908 5.6247 77.5908 11.739V56.0057C77.5908 62.12 82.5432 67.0724 88.6575 67.0724H111.018C111.156 76.9562 110.189 98.1344 100.621 113.846H100.632C99.9258 114.935 99.6247 116.237 99.7811 117.525C99.9374 118.814 100.541 120.006 101.488 120.894C102.434 121.782 103.662 122.31 104.957 122.385C106.253 122.459 107.533 122.077 108.575 121.303C108.575 121.303 132.924 102.732 132.924 67.0724V11.739C132.924 5.6247 127.972 0.672363 121.857 0.672363H88.6575Z" fill="#E4ECFF"/>
</svg>
